<svg width="146" height="111" viewBox="0 0 146 111" fill="none" xmlns="http://www.w3.org/2000/svg">
<path d="M17.0712 100.462C17.768 100.462 18.3776 101.072 18.3776 101.768C18.3776 102.465 17.768 103.075 17.0712 103.075C16.3745 103.075 15.7648 102.465 15.7648 101.768C15.7648 101.072 16.3745 100.462 17.0712 100.462ZM17.0712 99.417C15.7648 99.417 14.7197 100.462 14.7197 101.768C14.7197 103.075 15.7648 104.12 17.0712 104.12C18.3776 104.12 19.4227 103.075 19.4227 101.768C19.4227 100.462 18.3776 99.417 17.0712 99.417Z" fill="black"/>
<path d="M31.702 68.5871C33.7051 68.5871 35.2728 70.2419 35.2728 72.1579C35.2728 74.161 33.6181 75.7287 31.702 75.7287C29.786 75.7287 28.1312 74.0739 28.1312 72.1579C28.0441 70.2419 29.6989 68.5871 31.702 68.5871ZM31.702 67.542C29.0892 67.542 26.999 69.6322 26.999 72.245C26.999 74.7707 29.0892 76.8609 31.6149 76.8609C34.1406 76.8609 36.2308 74.7707 36.2308 72.245C36.3179 69.6322 34.2277 67.542 31.702 67.542Z" fill="black"/>
<path d="M22.6437 63.6223C23.9501 63.6223 24.9952 64.6674 24.9952 65.9738C24.9952 67.2801 23.9501 68.3253 22.6437 68.3253C21.3373 68.3253 20.2922 67.2801 20.2922 65.9738C20.2051 64.6674 21.3373 63.6223 22.6437 63.6223ZM22.6437 62.5771C20.7276 62.5771 19.2471 64.1448 19.2471 65.9738C19.2471 67.8898 20.8147 69.3704 22.6437 69.3704C24.5597 69.3704 26.0403 67.8027 26.0403 65.9738C26.0403 64.0577 24.4726 62.5771 22.6437 62.5771Z" fill="black"/>
<path d="M17.2443 72.6799C21.5119 72.6799 25.0826 76.1636 25.0826 80.5182C25.0826 81.2149 24.9956 81.9117 24.8214 82.6084C24.6472 83.131 24.9956 83.6535 25.5181 83.9148C28.1309 84.7857 29.7856 87.2243 29.7856 89.9242C29.7856 90.5338 29.6985 91.1435 29.5244 91.7531C29.4373 92.0144 29.4373 92.3628 29.6115 92.537C29.7856 92.7982 29.9598 92.9724 30.3082 93.0595C31.6146 93.3208 32.4855 94.453 32.4855 95.8465C32.4855 96.8045 32.05 97.6754 31.2662 98.198C31.0049 98.3722 30.8308 98.7205 30.8308 99.0689C30.8308 99.4173 31.0049 99.7656 31.3533 99.9398C31.6146 100.114 31.7888 100.462 31.7888 100.811C31.7888 101.333 31.3533 101.856 30.7437 101.856C30.134 101.856 29.6985 101.42 29.6985 100.811C29.6985 100.637 29.7856 100.462 29.8727 100.288C30.0469 100.027 30.134 99.5915 29.9598 99.3302C29.7856 98.9818 29.5244 98.8076 29.176 98.7205C28.1309 98.5463 27.26 97.7625 26.9116 96.7174C26.8245 96.4561 26.6503 96.1949 26.389 96.1078C26.2148 96.0207 26.0407 96.0207 25.9536 96.0207C25.8665 96.0207 25.6923 96.0207 25.6052 96.1078C24.9085 96.369 24.1246 96.4561 23.4279 96.4561C22.2086 96.4561 21.0764 96.1078 20.0313 95.4981C19.8571 95.411 19.6829 95.3239 19.5087 95.3239C19.2474 95.3239 19.0733 95.411 18.8991 95.4981C17.5927 96.5432 15.9379 97.0658 14.2832 97.0658C10.0156 97.0658 6.61903 93.6692 6.61903 89.4016C6.61903 88.5307 6.79322 87.7469 7.05449 86.963C7.14159 86.7018 7.14159 86.3534 6.9674 86.0921C6.79322 85.8308 6.53194 85.6567 6.27066 85.5696C3.30952 84.9599 1.2193 82.3471 1.2193 79.2989C1.2193 75.8152 4.09335 72.9412 7.57705 72.9412C9.05762 72.9412 10.364 73.3766 11.4962 74.3346C11.6704 74.5088 11.9317 74.5959 12.1059 74.5959C12.28 74.5959 12.5413 74.5088 12.7155 74.4217C14.0219 73.2024 15.5896 72.6799 17.2443 72.6799ZM17.2443 71.6348C15.2412 71.6348 13.4993 72.2444 12.0188 73.3766C10.7124 72.4186 9.14471 71.8089 7.40286 71.8089C3.30952 71.8089 0 75.1185 0 79.2118C0 82.7826 2.52568 85.7438 5.8352 86.5276C5.57392 87.3985 5.39974 88.3565 5.39974 89.3145C5.39974 94.1046 9.3189 98.0238 14.109 98.0238C16.1121 98.0238 17.9411 97.3271 19.4216 96.2819C20.5538 96.9787 21.9473 97.4141 23.4279 97.4141C24.2988 97.4141 25.1697 97.24 25.9536 96.9787C26.389 98.3722 27.5212 99.4173 29.0018 99.6786C28.8276 100.027 28.6534 100.375 28.6534 100.811C28.6534 101.943 29.6115 102.901 30.7437 102.901C31.8759 102.901 32.8339 101.943 32.8339 100.811C32.8339 100.114 32.4855 99.4173 31.8759 99.0689C32.921 98.3722 33.5306 97.24 33.5306 95.8465C33.5306 94.0175 32.2242 92.4499 30.5695 92.1015C30.7437 91.4048 30.8308 90.708 30.8308 90.0113C30.8308 86.7889 28.7405 84.0019 25.7794 82.9568C25.9536 82.173 26.1278 81.3891 26.1278 80.6053C26.1278 75.641 22.1215 71.6348 17.2443 71.6348Z" fill="black"/>
<path d="M86.9189 13.5451C93.1896 13.5451 98.2409 18.5965 98.2409 24.8671C98.2409 31.1378 93.1896 36.1892 86.9189 36.1892C80.6482 36.1892 75.5969 31.1378 75.5969 24.8671C75.5969 18.5965 80.7353 13.5451 86.9189 13.5451ZM86.9189 12.5C80.0386 12.5 74.5518 18.0739 74.5518 24.8671C74.5518 31.7474 80.1257 37.2343 86.9189 37.2343C93.7992 37.2343 99.286 31.6604 99.286 24.8671C99.3731 18.0739 93.7992 12.5 86.9189 12.5Z" fill="black"/>
<path d="M86.6572 1.35156V5.35782" stroke="#101518" stroke-width="1.2" stroke-miterlimit="10" stroke-linecap="round" stroke-linejoin="round"/>
<path d="M86.6572 46.3789V50.3852" stroke="#101518" stroke-width="1.2" stroke-miterlimit="10" stroke-linecap="round" stroke-linejoin="round"/>
<path d="M103.988 7.9707L101.114 10.8448" stroke="#101518" stroke-width="1.2" stroke-miterlimit="10" stroke-linecap="round" stroke-linejoin="round"/>
<path d="M72.2002 10.7578L69.3262 7.88379" stroke="#101518" stroke-width="1.2" stroke-miterlimit="10" stroke-linecap="round" stroke-linejoin="round"/>
<path d="M103.988 42.5459L101.114 39.6719" stroke="#101518" stroke-width="1.2" stroke-miterlimit="10" stroke-linecap="round" stroke-linejoin="round"/>
<path d="M72.201 39.7598L69.4141 42.6338" stroke="#101518" stroke-width="1.2" stroke-miterlimit="10" stroke-linecap="round" stroke-linejoin="round"/>
<path d="M66.7133 26.6084H62.707" stroke="#101518" stroke-width="1.2" stroke-miterlimit="10" stroke-linecap="round" stroke-linejoin="round"/>
<path d="M110.52 26.6084H106.514" stroke="#101518" stroke-width="1.2" stroke-miterlimit="10" stroke-linecap="round" stroke-linejoin="round"/>
<path d="M144.138 100.55V96.8919C144.138 96.8919 145.096 90.9696 137.258 89.1407C129.332 87.2246 127.677 86.9634 126.458 86.0924C125.239 85.1344 117.836 79.5605 117.836 79.5605C117.836 79.5605 112.872 75.293 107.124 75.293C103.204 75.293 93.4501 75.293 87.7891 75.293C88.1374 75.293 88.3987 75.293 88.66 75.293C88.3987 75.293 88.0503 75.293 87.7891 75.293M110.259 85.2215C109.562 85.2215 109.214 84.786 108.865 84.6119C107.733 83.7409 99.7207 77.8187 98.8498 77.2961H107.211C111.652 77.209 115.746 80.7798 115.746 80.7798C117.226 81.912 119.142 83.3926 121.668 85.3086C121.668 85.2215 113.133 85.3086 110.259 85.2215Z" stroke="black" stroke-width="1.2" stroke-miterlimit="10" stroke-linecap="round" stroke-linejoin="round"/>
<path d="M144.399 100.725H125.674V104.382H144.399C144.747 104.382 145.008 104.034 145.008 103.512V101.508C145.008 101.073 144.747 100.725 144.399 100.725Z" stroke="black" stroke-width="1.2" stroke-miterlimit="10" stroke-linecap="round" stroke-linejoin="round"/>
<path d="M137.17 102.553H134.296C133.338 102.553 132.642 101.769 132.642 100.898V100.027C132.642 99.5917 132.99 99.1562 133.513 99.1562H138.216C138.651 99.1562 139.086 99.5046 139.086 100.027V100.724C138.999 101.682 138.216 102.553 137.17 102.553Z" fill="black"/>
<path d="M126.807 94.8889C126.807 95.934 127.416 96.892 128.2 96.892C128.984 96.892 129.594 95.934 129.594 94.8889C129.594 93.7567 128.984 92.8857 128.2 92.8857C127.416 92.8857 126.807 93.7567 126.807 94.8889Z" fill="black"/>
<path d="M139.173 94.8889C139.173 95.934 139.782 96.892 140.566 96.892C141.35 96.892 141.96 95.934 141.96 94.8889C141.96 93.7567 141.35 92.8857 140.566 92.8857C139.782 92.8857 139.173 93.7567 139.173 94.8889Z" fill="black"/>
<path d="M95.975 104.469C95.4525 107.082 93.7106 108.998 91.7075 108.998H88.1367" stroke="black" stroke-width="1.2" stroke-miterlimit="10" stroke-linecap="round" stroke-linejoin="round"/>
<path d="M80.2114 104.382C79.6888 106.995 77.947 108.998 75.9438 108.998H72.373" stroke="black" stroke-width="1.2" stroke-miterlimit="10" stroke-linecap="round" stroke-linejoin="round"/>
<path d="M67.9316 102.64C67.9316 106.036 69.9348 108.91 72.3734 108.998C74.8119 108.998 76.8151 106.124 76.8151 102.553" stroke="black" stroke-width="1.2" stroke-miterlimit="10" stroke-linecap="round" stroke-linejoin="round"/>
<path d="M139.697 104.644C139.087 107.169 137.432 108.998 135.516 108.911H131.945" stroke="black" stroke-width="1.2" stroke-miterlimit="10" stroke-linecap="round" stroke-linejoin="round"/>
<path d="M127.677 104.556C128.286 107.082 129.941 108.998 131.857 108.998C133.86 108.998 135.515 107.082 136.125 104.469" stroke="black" stroke-width="1.2" stroke-miterlimit="10" stroke-linecap="round" stroke-linejoin="round"/>
<path d="M121.32 104.557C120.71 107.082 119.055 108.998 117.139 108.998H113.568" stroke="black" stroke-width="1.2" stroke-miterlimit="10" stroke-linecap="round" stroke-linejoin="round"/>
<path d="M47.5518 85.7455C46.4196 85.3971 45.7229 84.7875 45.4616 84.0036C44.7648 81.3909 48.5969 76.6879 50.4258 74.8589H77.0762H77.1632C78.2084 74.6848 79.3406 74.5977 80.4728 74.5977C91.1851 74.5977 99.9815 82.8714 102.856 85.8326H47.5518V85.7455Z" fill="white"/>
<path d="M80.4729 75.1199C89.7918 75.1199 97.7173 81.5647 101.288 85.0484H47.6391C46.3327 84.6129 46.1585 84.0033 46.1585 83.742C45.6359 81.826 48.4229 77.8197 50.7744 75.3811H77.1634C77.2505 75.3811 77.3376 75.3811 77.3376 75.3811C78.2956 75.207 79.4278 75.1199 80.4729 75.1199ZM80.4729 73.8135C79.3407 73.8135 78.2085 73.9006 77.0763 74.0748H50.1647C50.1647 74.0748 40.1491 84.1775 47.4649 86.3548H104.336C104.249 86.3548 93.9723 73.8135 80.4729 73.8135Z" fill="black"/>
<path d="M97.8914 93.1475H36.4912V105.776H97.8914V93.1475Z" fill="black"/>
<path d="M111.912 96.0219H115.918C118.618 96.0219 120.883 99.1572 120.883 103.076C120.883 106.996 118.618 110.305 115.918 110.305H111.912C114.612 110.305 114.612 95.9348 111.912 96.0219Z" fill="black"/>
<path d="M106.861 103.163C106.861 106.995 109.126 110.218 111.826 110.305C114.525 110.305 116.877 106.995 116.79 103.076C116.79 99.1568 114.525 96.0215 111.826 96.0215C109.126 96.0215 106.861 99.2439 106.861 103.163Z" fill="black"/>
<path d="M62.7051 96.0219H66.7113C69.4112 96.0219 71.6756 99.1572 71.6756 103.076C71.6756 106.996 69.4112 110.305 66.7113 110.305H62.7051C65.4049 110.305 65.4049 95.9348 62.7051 96.0219Z" fill="black"/>
<path d="M57.6543 103.163C57.6543 106.995 59.9187 110.218 62.6186 110.305C65.3184 110.305 67.6699 106.995 67.5828 103.076C67.5828 99.1568 65.3184 96.0215 62.6186 96.0215C59.9187 96.0215 57.6543 99.2439 57.6543 103.163Z" fill="black"/>
<path d="M90.1396 96.0219H94.1459C96.8458 96.0219 99.1102 99.1572 99.1102 103.076C99.1102 106.996 96.8458 110.305 94.1459 110.305H90.1396C92.8395 110.305 92.8395 95.9348 90.1396 96.0219Z" fill="black"/>
<path d="M85.1758 103.163C85.1758 106.995 87.4402 110.218 90.1401 110.305C92.8399 110.305 95.1914 106.995 95.1043 103.076C95.1043 99.1568 92.8399 96.0215 90.1401 96.0215C87.3531 96.0215 85.1758 99.2439 85.1758 103.163Z" fill="black"/>
<path d="M90.1403 105.864C89.2694 105.864 88.3984 104.557 88.3984 103.164C88.3984 101.683 89.1823 100.464 90.1403 100.377C91.0112 100.377 91.795 101.596 91.795 103.077C91.795 104.035 91.4467 104.906 91.0112 105.428C90.837 105.69 90.4887 105.864 90.1403 105.864Z" fill="white"/>
<path d="M90.1406 99.7666C88.8342 99.7666 87.7891 101.247 87.7891 103.163C87.7891 104.992 88.8342 106.56 90.1406 106.56C91.4469 106.56 92.4921 104.992 92.4921 103.163C92.4921 101.247 91.4469 99.7666 90.1406 99.7666Z" fill="black"/>
<path d="M44.1553 96.0219H48.1615C50.8614 96.0219 53.1258 99.1572 53.1258 103.076C53.1258 106.996 50.8614 110.305 48.1615 110.305H44.1553C46.8551 110.305 46.8551 95.9348 44.1553 96.0219Z" fill="black"/>
<path d="M39.1909 103.163C39.1909 106.995 41.4553 110.218 44.1552 110.305C46.855 110.305 49.2065 106.995 49.1195 103.076C49.1195 99.1568 46.855 96.0215 44.1552 96.0215C41.3682 96.0215 39.1038 99.2439 39.1909 103.163Z" fill="black"/>
<path d="M44.1559 105.864C43.285 105.864 42.4141 104.557 42.4141 103.164C42.4141 101.683 43.1979 100.464 44.1559 100.377C45.0268 100.377 45.8107 101.596 45.8107 103.077C45.8107 104.035 45.4623 104.906 45.0268 105.428C44.8527 105.69 44.5043 105.864 44.1559 105.864Z" fill="white"/>
<path d="M44.1552 99.7666C42.8488 99.7666 41.8037 101.247 41.8037 103.163C41.8037 104.992 42.8488 106.56 44.1552 106.56C45.4616 106.56 46.5067 104.992 46.5067 103.163C46.5067 101.247 45.4616 99.7666 44.1552 99.7666Z" fill="black"/>
<path d="M117.749 88.6187C108.865 86.5285 107.037 86.1801 105.643 85.135C104.25 84.0899 95.8887 77.7322 95.8887 77.7322C95.8887 77.7322 90.3148 72.9421 83.7828 72.9421C79.3411 72.9421 68.4545 72.9421 62.0097 72.9421C62.3581 72.9421 62.7064 72.9421 63.0548 73.0292C62.7064 73.0292 62.3581 72.9421 62.0097 72.9421C56.3487 72.9421 55.9132 72.9421 55.8261 72.9421C55.8261 72.9421 46.5943 72.2453 40.4979 78.3418C40.4979 78.3418 36.4916 81.9997 35.7078 86.4414C34.8368 91.5799 33.4434 105.689 33.4434 105.689H37.7109V100.812C37.7109 97.328 40.4108 94.1927 43.9816 94.1056C47.6394 94.0185 50.6006 96.8925 50.6006 100.55V103.686C50.6006 104.818 51.4715 105.689 52.6037 105.689H82.1281C83.0861 105.689 83.8699 104.905 83.8699 103.947V100.986C83.8699 97.5022 86.5698 94.3668 90.1406 94.2797C93.7985 94.1927 96.7596 97.0667 96.7596 100.725V105.863H103.814H125.587V97.4151C125.587 97.4151 126.632 90.796 117.749 88.6187ZM47.3782 84.3512C46.4201 84.3512 45.8105 83.3932 46.1589 82.6094C46.1589 82.6094 47.8136 74.9452 55.0423 74.9452C55.4778 74.9452 55.8261 74.9452 55.8261 74.9452H55.9132H56.0003H56.3487L57.3938 84.3512H47.3782ZM74.6381 81.7384C73.7672 81.7384 72.9834 82.4352 72.9834 83.3932V84.3512H59.3098L58.2647 74.9452H62.1839C67.8449 74.9452 72.9834 79.2127 72.9834 79.2998H73.0705C73.2446 79.3869 74.551 80.432 76.2058 81.7384H74.6381ZM86.5698 84.3512C85.8731 84.0899 85.3505 83.9157 85.0021 83.6545C83.6957 82.6964 75.9445 76.7742 75.3349 76.3387C75.1607 76.1645 74.4639 75.6419 73.5059 74.9452H83.8699C89.5309 74.9452 94.6694 79.2127 94.6694 79.2998H94.7565C95.0178 79.474 98.5015 82.1739 101.288 84.2641H86.5698V84.3512Z" fill="#DF1B12"/>
<path d="M125.587 101.683H96.6719V105.776H125.587C126.109 105.776 126.545 105.341 126.545 104.818V102.641C126.545 102.118 126.109 101.683 125.587 101.683Z" fill="black"/>
<path d="M118.009 103.773H114.351C113.393 103.773 112.696 102.989 112.696 102.119V100.899C112.696 100.464 113.045 100.028 113.567 100.028H119.054C119.49 100.028 119.925 100.377 119.925 100.899V102.031C119.838 102.902 118.967 103.773 118.009 103.773Z" fill="white"/>
<path d="M106.078 95.1511C106.078 96.3704 106.775 97.4155 107.646 97.4155C108.517 97.4155 109.213 96.3704 109.213 95.1511C109.213 93.9318 108.517 92.8867 107.646 92.8867C106.775 92.8867 106.078 93.8447 106.078 95.1511Z" fill="white"/>
<path d="M120.014 95.1511C120.014 96.3704 120.71 97.4155 121.581 97.4155C122.452 97.4155 123.149 96.3704 123.149 95.1511C123.149 93.9318 122.452 92.8867 121.581 92.8867C120.71 92.8867 120.014 93.8447 120.014 95.1511Z" fill="white"/>
<path d="M33.7038 105.165C33.5297 105.165 33.3555 104.991 33.3555 104.817V102.466C33.3555 102.291 33.5297 102.117 33.7038 102.117H37.1004V105.253H33.7038V105.165Z" fill="white"/>
<path d="M36.4034 102.727V104.556H33.9648V102.727H36.4034ZM37.7097 101.421H33.6164C33.0067 101.421 32.5713 101.856 32.5713 102.466V104.818C32.5713 105.427 33.0067 105.863 33.6164 105.863H38.1452H37.7097V101.421Z" fill="black"/>
<path d="M103.814 101.683V97.328C103.814 97.328 104.946 90.709 96.0625 88.6187C87.1791 86.5285 85.3501 86.1801 83.9567 85.135C82.5632 84.0899 74.2023 77.7322 74.2023 77.7322C74.2023 77.7322 68.6284 72.9421 62.0964 72.9421C56.4354 72.9421 56 72.9421 55.9129 72.9421C55.9129 72.9421 46.6811 72.2453 40.5846 78.3418C40.5846 78.3418 36.5783 81.9997 35.7945 86.4414C35.1849 89.7509 34.401 96.9796 33.9656 101.508H33.6172C33.0946 101.508 32.6592 101.944 32.6592 102.466V104.644C32.6592 105.166 33.0075 105.515 33.5301 105.602H33.6172H37.7976V101.508V100.986C37.7976 97.5022 40.4975 94.3668 44.0683 94.2797C47.7262 94.1927 50.6873 97.0667 50.6873 100.725V103.947C50.6873 104.992 51.5583 105.863 52.6034 105.863H82.3019C83.2599 105.863 83.9567 105.079 83.9567 104.208V100.986C83.9567 97.5022 86.6565 94.3668 90.2273 94.2797C93.8852 94.1927 96.8464 97.0667 96.8464 100.725V101.77V105.863H103.901C104.423 105.863 104.859 105.428 104.859 104.905V102.728C104.772 102.118 104.336 101.683 103.814 101.683Z" fill="#DF1B12"/>
<path d="M47.3769 84.3513C46.4189 84.3513 45.8093 83.3933 46.1576 82.6095C46.1576 82.6095 47.8124 74.9453 55.0411 74.9453C55.4765 74.9453 55.8249 74.9453 55.8249 74.9453H55.912H55.9991H56.3474L57.3926 84.3513H47.3769ZM74.6369 81.7385C73.766 81.7385 72.9821 82.4353 72.9821 83.3933V84.3513H59.3086L58.2635 74.9453H62.1827C67.8437 74.9453 72.9821 79.2128 72.9821 79.2999H73.0692C73.2434 79.387 74.5498 80.4321 76.2045 81.7385H74.6369ZM86.5686 84.3513C85.8718 84.09 85.3493 83.9158 85.0009 83.6546C83.6945 82.6965 75.9433 76.7743 75.3336 76.3388C75.1594 76.1646 74.4627 75.6421 73.5047 74.9453H83.8687C89.5297 74.9453 94.6682 79.2128 94.6682 79.2999H94.7552C95.0165 79.4741 98.5002 82.174 101.287 84.2642H86.5686V84.3513Z" fill="white"/>
</svg>
